<svg xmlns="http://www.w3.org/2000/svg" xmlns:xlink="http://www.w3.org/1999/xlink" width="500" zoomAndPan="magnify" viewBox="0 0 375 374.999991" height="500" preserveAspectRatio="xMidYMid meet" version="1.0"><defs><clipPath id="6d8a916119"><path d="M 17.445312 17.445312 L 357.554688 17.445312 L 357.554688 357.554688 L 17.445312 357.554688 Z M 17.445312 17.445312 " clip-rule="nonzero"/></clipPath><clipPath id="ac5d81c552"><path d="M 187.5 17.445312 C 93.582031 17.445312 17.445312 93.582031 17.445312 187.5 C 17.445312 281.417969 93.582031 357.554688 187.5 357.554688 C 281.417969 357.554688 357.554688 281.417969 357.554688 187.5 C 357.554688 93.582031 281.417969 17.445312 187.5 17.445312 Z M 187.5 17.445312 " clip-rule="nonzero"/></clipPath><clipPath id="e550a1e3df"><path d="M 82 66.457031 L 293 66.457031 L 293 308.707031 L 82 308.707031 Z M 82 66.457031 " clip-rule="nonzero"/></clipPath></defs><g clip-path="url(#6d8a916119)"><g clip-path="url(#ac5d81c552)"><path fill="#000000" d="M 17.445312 17.445312 L 357.554688 17.445312 L 357.554688 357.554688 L 17.445312 357.554688 Z M 17.445312 17.445312 " fill-opacity="1" fill-rule="nonzero"/></g></g><g clip-path="url(#e550a1e3df)"><path fill="#ffffff" d="M 273.625 66.457031 L 274.554688 125.113281 C 272.691406 125.113281 270.832031 125.113281 268.039062 125.113281 C 265.242188 125.113281 264.3125 124.183594 263.382812 121.390625 C 263.382812 119.527344 262.449219 118.597656 262.449219 116.734375 C 256.863281 96.25 245.691406 85.078125 225.207031 85.078125 C 197.273438 85.078125 155.375 85.078125 154.441406 85.078125 C 153.511719 85.078125 151.648438 85.078125 151.648438 86.941406 C 173.996094 116.734375 196.34375 146.53125 219.621094 176.324219 C 192.617188 207.984375 138.613281 271.296875 138.613281 271.296875 C 138.613281 271.296875 203.792969 271.296875 238.242188 271.296875 C 256.863281 271.296875 269.898438 265.710938 276.417969 248.953125 C 277.347656 247.089844 278.277344 246.15625 278.277344 244.296875 C 281.074219 232.191406 292.246094 234.054688 292.246094 234.054688 L 278.277344 308.542969 C 278.277344 308.542969 90.195312 308.542969 87.402344 308.542969 C 84.609375 308.542969 82.75 306.679688 82.75 305.75 C 116.269531 265.710938 147.925781 227.535156 181.445312 187.5 C 147.925781 146.53125 82.75 66.457031 82.75 66.457031 Z M 273.625 66.457031 " fill-opacity="1" fill-rule="nonzero"/></g></svg>